<?xml version="1.0" encoding="UTF-8" standalone="no"?>
<!-- Created with Inkscape (http://www.inkscape.org/) -->

<svg
   width="58.264584mm"
   height="90.26458mm"
   viewBox="0 0 58.264584 90.26458"
   version="1.1"
   id="svg5"
   sodipodi:docname="cartes_.svg"
   inkscape:version="1.3.1 (91b66b0783, 2023-11-16)"
   xmlns:inkscape="http://www.inkscape.org/namespaces/inkscape"
   xmlns:sodipodi="http://sodipodi.sourceforge.net/DTD/sodipodi-0.dtd"
   xmlns="http://www.w3.org/2000/svg"
   xmlns:svg="http://www.w3.org/2000/svg">
  <sodipodi:namedview
     id="namedview1"
     pagecolor="#ffffff"
     bordercolor="#000000"
     borderopacity="0.25"
     inkscape:showpageshadow="2"
     inkscape:pageopacity="0.0"
     inkscape:pagecheckerboard="0"
     inkscape:deskcolor="#d1d1d1"
     inkscape:document-units="mm"
     inkscape:zoom="2.3625454"
     inkscape:cx="110.0508"
     inkscape:cy="170.57873"
     inkscape:window-width="1920"
     inkscape:window-height="1002"
     inkscape:window-x="-8"
     inkscape:window-y="-8"
     inkscape:window-maximized="1"
     inkscape:current-layer="svg5" />
  <defs
     id="defs2" />
  <g
     id="layer1"
     transform="translate(-17.036175,27.098103)">
    <g
       id="g4730"
       transform="translate(13.512009,-30.637781)">
      <g
         id="g1425"
         transform="translate(-60.719115,-61.610814)">
        <circle
           style="fill:none;stroke:none;stroke-width:0.264583;stroke-opacity:1"
           id="path1141-1"
           cx="117.37556"
           cy="150.28279"
           r="5" />
        <text
           xml:space="preserve"
           style="font-style:normal;font-variant:normal;font-weight:normal;font-stretch:normal;font-size:4.93889px;font-family:'Noto Sans';-inkscape-font-specification:'Noto Sans';fill:none;stroke:#000000;stroke-width:0.264583;stroke-opacity:1"
           x="115.96304"
           y="152.04845"
           id="text1197-0"><tspan
             id="tspan1195-6"
             style="font-style:normal;font-variant:normal;font-weight:normal;font-stretch:normal;font-size:4.93889px;font-family:'Noto Sans';-inkscape-font-specification:'Noto Sans';fill:#000000;fill-opacity:1;stroke-width:0.264583"
             x="115.96304"
             y="152.04845"> </tspan></text>
        <circle
           style="fill:none;stroke:none;stroke-width:0.264583;stroke-opacity:1"
           id="path1141-5"
           cx="69.375572"
           cy="150.28279"
           r="5" />
        <text
           xml:space="preserve"
           style="font-style:normal;font-variant:normal;font-weight:normal;font-stretch:normal;font-size:4.93889px;font-family:'Noto Sans';-inkscape-font-specification:'Noto Sans';fill:none;stroke:#000000;stroke-width:0.264583;stroke-opacity:1"
           x="67.963051"
           y="152.04845"
           id="text1197-9"><tspan
             id="tspan1195-4"
             style="font-style:normal;font-variant:normal;font-weight:normal;font-stretch:normal;font-size:4.93889px;font-family:'Noto Sans';-inkscape-font-specification:'Noto Sans';fill:#000000;fill-opacity:1;stroke-width:0.264583"
             x="67.963051"
             y="152.04845"> </tspan></text>
        <rect
           style="fill:none;stroke:#000000;stroke-width:0.264583;stroke-opacity:1"
           id="rect111"
           width="58"
           height="90"
           x="64.375572"
           y="65.282784"
           rx="5" />
        <path
           id="rect111-3"
           style="fill:none;stroke:#000000;stroke-width:0.264583;stroke-opacity:1"
           d="m 74.268908,69.282557 a 5,5 0 0 1 0.12402,1.09554 5,5 0 0 1 -5.00021,5.000212 5,5 0 0 1 -1.01699,-0.109038 v 70.111489 a 5,5 0 0 1 0.90278,-0.0853 5,5 0 0 1 5.00021,4.9997 5,5 0 0 1 -0.1018,0.98753 h 38.356322 a 5,5 0 0 1 -0.11266,-1.02939 5,5 0 0 1 5.00021,-5.00021 5,5 0 0 1 0.95498,0.0925 V 75.175737 a 5,5 0 0 1 -1.02422,0.111104 5,5 0 0 1 -5.00021,-5.000211 5,5 0 0 1 0.1049,-1.004073 z" />
        <circle
           style="fill:none;stroke:none;stroke-width:0.264583;stroke-opacity:1"
           id="path1141-0"
           cx="69.375572"
           cy="70.282784"
           r="5" />
        <text
           xml:space="preserve"
           style="font-style:normal;font-variant:normal;font-weight:normal;font-stretch:normal;font-size:4.93889px;font-family:'Noto Sans';-inkscape-font-specification:'Noto Sans';fill:none;stroke:#000000;stroke-width:0.264583;stroke-opacity:1"
           x="67.963051"
           y="72.048439"
           id="text1197-91"><tspan
             id="tspan1195-7"
             style="font-style:normal;font-variant:normal;font-weight:normal;font-stretch:normal;font-size:4.93889px;font-family:'Noto Sans';-inkscape-font-specification:'Noto Sans';fill:#000000;fill-opacity:1;stroke-width:0.264583"
             x="67.963051"
             y="72.048439"> </tspan></text>
        <circle
           style="fill:none;stroke:none;stroke-width:0.264583;stroke-opacity:1"
           id="path1141"
           cx="117.37557"
           cy="70.282784"
           r="5" />
        <text
           xml:space="preserve"
           style="font-style:normal;font-variant:normal;font-weight:normal;font-stretch:normal;font-size:4.93889px;font-family:'Noto Sans';-inkscape-font-specification:'Noto Sans';fill:none;stroke:#000000;stroke-width:0.264583;stroke-opacity:1"
           x="115.96305"
           y="72.048439"
           id="text1197"><tspan
             id="tspan1195"
             style="font-style:normal;font-variant:normal;font-weight:normal;font-stretch:normal;font-size:4.93889px;font-family:'Noto Sans';-inkscape-font-specification:'Noto Sans';fill:#000000;fill-opacity:1;stroke-width:0.264583"
             x="115.96305"
             y="72.048439"> </tspan></text>
      </g>
      <text
         xml:space="preserve"
         style="font-style:normal;font-variant:normal;font-weight:normal;font-stretch:normal;font-size:25.4px;font-family:'Noto Sans';-inkscape-font-specification:'Noto Sans';fill:#000000;fill-opacity:1;stroke:#000000;stroke-width:0.264583;stroke-opacity:1"
         x="25.392052"
         y="57.752468"
         id="text1429"><tspan
           id="tspan1427"
           style="font-size:25.4px;stroke-width:0.264583"
           x="25.392052"
           y="57.752468"> </tspan></text>
    </g>
  </g>
  <path
     style="fill:#235708;stroke-width:2.87958;fill-opacity:1"
     d="m 38.61185,322.85094 c 0.546869,-4.87688 -2.148352,-11.4954 -6.214048,-15.25952 -3.883052,-3.59502 -8.451288,-5.375 -13.794655,-5.375 h -2.307164 l -2.63e-4,-131.53187 -2.63e-4,-131.531863 2.170446,0.150299 c 7.422948,0.514026 15.042041,-3.914126 18.360345,-10.670876 1.682313,-3.425533 2.501371,-7.158203 2.219302,-10.113947 l -0.191869,-2.010544 h 71.314629 71.31463 l -0.23757,1.463976 c -0.41768,2.573851 0.46404,7.029801 2.01982,10.207605 3.2648,6.668611 9.98419,10.761851 17.66644,10.761851 h 2.87398 V 170.57873 302.21642 h -3.1879 c -7.3608,0 -13.99589,4.16135 -17.16578,10.76593 -1.49733,3.11974 -2.19753,6.38367 -2.01111,9.37458 l 0.14299,2.29407 -71.58684,-5.8e-4 -71.586841,-5.7e-4 z"
     id="path1"
     transform="scale(0.26458333)" />
  <path
     style="fill:#002a00;fill-opacity:1;stroke-width:2.87958"
     d="M 14.033974,339.05182 C 7.4563774,336.95036 2.5981954,331.27184 1.4665893,324.36235 0.91914302,321.01969 0.91914302,20.13778 1.4665893,16.795119 2.6090298,9.819474 7.474452,4.1704906 14.118389,2.1057866 c 2.64436,-0.8217747 4.273434,-0.8359697 95.939281,-0.8359697 90.14652,0 93.3345,0.026534 95.81143,0.7974432 4.77708,1.4867941 8.235,4.2316576 10.7601,8.5412539 2.59819,4.434352 2.41421,-7.7563502 2.41421,159.970216 0,167.72657 0.18398,155.53587 -2.41421,159.97022 -2.5251,4.3096 -5.98302,7.05446 -10.7601,8.54125 -2.47794,0.77123 -5.63316,0.7967 -95.96183,0.77469 -89.984078,-0.0219 -93.49011,-0.0517 -95.873296,-0.81307 z M 183.30935,325.39057 c -0.61705,-3.00877 -0.63216,-4.34987 -0.0789,-7.0032 0.82945,-3.97809 2.45155,-7.01757 5.15226,-9.65431 3.83029,-3.73957 8.90361,-5.56131 14.24132,-5.11381 l 2.87469,0.241 V 170.51115 37.162045 l -2.85709,0.285358 c -7.72957,0.772009 -15.01731,-3.463734 -18.45966,-10.729026 -1.23268,-2.601638 -1.32832,-3.131118 -1.32832,-7.353764 v -4.55027 l -72.80283,9.3e-5 -72.802838,9.4e-5 v 4.783766 c 0,4.676846 -0.03556,4.855722 -1.591158,8.003252 -3.458953,6.998718 -11.136585,11.263384 -18.264924,10.14555 l -2.365714,-0.37098 V 170.69734 304.01857 l 2.12925,-0.28246 c 7.060971,-0.93667 14.687616,3.38413 18.078116,10.24197 1.542571,3.1201 1.591157,3.35801 1.591157,7.79116 v 4.57279 l 73.339991,4.5e-4 73.33998,4.6e-4 z"
     id="path2"
     transform="scale(0.26458333)" />
  <path
     style="fill:#005000;fill-opacity:1;stroke-width:2.87958"
     d="m 38.729415,321.73153 c 0,-7.77857 -4.586593,-14.65291 -12.076758,-18.10053 -2.017695,-0.92871 -3.314172,-1.19825 -6.441405,-1.33915 l -3.915269,-0.17641 V 170.78911 39.462783 l 4.126905,-0.17284 c 3.37379,-0.141299 4.587897,-0.38545 6.653042,-1.337896 7.616295,-3.512639 12.076757,-10.276956 12.076757,-18.314471 v -3.129957 h 71.006983 71.00697 l -0.15507,1.949787 c -0.21933,2.757658 0.63857,6.692509 2.15631,9.890189 1.78957,3.770392 4.95704,6.837667 9.0858,8.798407 2.94731,1.399673 3.71671,1.578804 7.42011,1.727552 l 4.13182,0.165956 v 131.58845 131.58846 h -3.39953 c -10.802,0 -19.0339,8.34849 -19.0339,19.30347 v 3.12996 H 110.0508 38.729415 Z"
     id="path3"
     transform="scale(0.26458333)" />
</svg>
